<?xml version="1.0" encoding="utf-8"?>
<!-- Generator: Adobe Illustrator 18.1.1, SVG Export Plug-In . SVG Version: 6.00 Build 0)  -->
<!DOCTYPE svg PUBLIC "-//W3C//DTD SVG 1.1//EN" "http://www.w3.org/Graphics/SVG/1.1/DTD/svg11.dtd">
<svg version="1.1" id="Layer_1" xmlns="http://www.w3.org/2000/svg" xmlns:xlink="http://www.w3.org/1999/xlink" x="0px" y="0px"
	 viewBox="0 0 734.1 331.3" enable-background="new 0 0 734.1 331.3" xml:space="preserve">
<g>
	<path fill="#333333" d="M172.9,74h-0.3c-2.6,4.6-8.9,7.9-16.3,7.9c-8.4,0-19.7-4-19.7-16.2c0-15.6,19.7-17.7,36.2-17.7v-1.3
		c0-6.4-5.5-9.6-12.1-9.6c-5.6,0-11,2.6-14.4,6l-6.8-7.9c5.9-5.4,14.3-8.3,22.3-8.3c18.9,0,23.5,11.5,23.5,22v31.8h-12.3V74z
		 M172.6,56.8h-3c-8.3,0-20.1,1-20.1,8.7c0,5,4.7,6.5,9.2,6.5c9,0,13.8-5.1,13.8-13.4V56.8z"/>
	<path fill="#333333" d="M198.3,28.4h12.6v8.7h0.2c2.8-6,8.4-10.2,15.3-10.2c1,0,2.3,0.1,3.2,0.3v12c-1.8-0.4-2.9-0.5-4.1-0.5
		c-11.8,0-14.1,10.2-14.1,14v28h-13.2V28.4z"/>
	<path fill="#333333" d="M235.3,38.9V28.4h9.2V13.3h12.9v15.1h13.2v10.4h-13.2v24.3c0,4.7,1.1,8,6.9,8c1.8,0,4.1-0.3,5.6-1.1
		l0.4,10.2c-2.3,0.9-5.8,1.4-8.8,1.4c-13.9,0-17.1-8.5-17.1-18.5V38.9H235.3z"/>
	<path fill="#333333" d="M311.8,42.3c-2.3-3-6.7-5.7-11.5-5.7c-4.2,0-8.4,1.5-8.4,5.7c0,4,4.1,5.1,11.4,6.9c7.8,1.8,17,5.3,17,15.6
		c0,12.7-10.4,17.4-21.9,17.4c-8.1,0-16.6-3-21.6-8.6l8.7-8c2.9,3.7,7.8,6.5,13.5,6.5c3.8,0,8.4-1.5,8.4-6.2c0-4.4-4.1-5.7-12.1-7.5
		c-7.8-1.8-15.6-5-15.6-14.8c0-11.6,10.5-16.6,20.9-16.6c7.6,0,15.5,2.6,19.7,7.9L311.8,42.3z"/>
	<path fill="#333333" d="M325.1,38.9V28.4h9.2V13.3h12.9v15.1h13.2v10.4h-13.2v24.3c0,4.7,1.1,8,6.9,8c1.8,0,4.1-0.3,5.6-1.1
		l0.4,10.2c-2.3,0.9-5.8,1.4-8.8,1.4c-13.9,0-17.1-8.5-17.1-18.5V38.9H325.1z"/>
	<path fill="#333333" d="M393.3,26.9c15.9,0,28.6,11,28.6,27.4c0,16.4-12.7,27.8-28.6,27.8s-28.6-11.4-28.6-27.8
		C364.7,37.9,377.4,26.9,393.3,26.9z M393.3,71.3c10.4,0,15.2-8.8,15.2-17c0-8.2-4.8-16.8-15.2-16.8S378,46.1,378,54.3
		C378,62.5,382.8,71.3,393.3,71.3z"/>
	<path fill="#333333" d="M432.4,28.4H445v8.7h0.2c2.9-6,8.4-10.2,15.3-10.2c1,0,2.3,0.1,3.2,0.3v12c-1.8-0.4-2.9-0.5-4.1-0.5
		c-11.8,0-14.1,10.2-14.1,14v28h-13.2V28.4z"/>
	<path fill="#333333" d="M476.8,2.9c4.8,0,8.6,3.4,8.6,7.8s-3.7,7.8-8.6,7.8c-4.8,0-8.3-3.7-8.3-7.8C468.5,6.6,472,2.9,476.8,2.9z
		 M470.3,28.4h13.2v52.2h-13.2V28.4z"/>
	<path fill="#333333" d="M547.1,58.7h-40c0.5,7.4,7.3,12.8,15,12.8c6.6,0,11-2.6,13.9-6.7l8.8,7c-5.2,7-12.6,10.4-22.6,10.4
		C506,82.1,494,71.8,494,54.8c0-16.9,11.9-28,27.8-28c14.7,0,25.4,9.5,25.4,28.3C547.3,56.4,547.3,57.5,547.1,58.7z M534.1,49.3
		c0-6.7-3.8-12.6-12.4-12.6c-7.8,0-14,5.3-14.6,12.6H534.1z"/>
	<path fill="#333333" d="M587.2,42.3c-2.3-3-6.7-5.7-11.5-5.7c-4.2,0-8.4,1.5-8.4,5.7c0,4,4.1,5.1,11.4,6.9c7.8,1.8,17,5.3,17,15.6
		c0,12.7-10.4,17.4-21.9,17.4c-8.1,0-16.6-3-21.6-8.6l8.7-8c2.8,3.7,7.8,6.5,13.5,6.5c3.8,0,8.4-1.5,8.4-6.2c0-4.4-4.1-5.7-12.1-7.5
		c-7.8-1.8-15.6-5-15.6-14.8c0-11.6,10.5-16.6,20.9-16.6c7.6,0,15.5,2.6,19.7,7.9L587.2,42.3z"/>
</g>
<g>
	<path fill="#1A1A1A" d="M9.3,130.5l-1.7,5.3H5.3l5.7-16.8h2.6l5.7,16.8h-2.3l-1.8-5.3H9.3z M14.9,128.8l-1.6-4.8
		c-0.4-1.1-0.6-2.1-0.9-3.1h0c-0.2,1-0.5,2-0.9,3l-1.6,4.9H14.9z"/>
	<path fill="#1A1A1A" d="M21.8,127.4c0-1.4,0-2.6-0.1-3.8h1.9l0.1,2.4h0.1c0.5-1.6,1.9-2.6,3.3-2.6c0.2,0,0.4,0,0.6,0.1v2.1
		c-0.2,0-0.5-0.1-0.8-0.1c-1.5,0-2.6,1.2-2.9,2.8c-0.1,0.3-0.1,0.6-0.1,1v6.4h-2.2V127.4z"/>
	<path fill="#1A1A1A" d="M33.2,120.2v3.5h3.1v1.7h-3.1v6.5c0,1.5,0.4,2.3,1.6,2.3c0.6,0,1-0.1,1.3-0.1l0.1,1.6
		c-0.4,0.2-1.1,0.3-1.9,0.3c-1,0-1.8-0.3-2.4-0.9c-0.6-0.6-0.9-1.7-0.9-3.1v-6.6h-1.9v-1.7H31v-2.9L33.2,120.2z"/>
	<path fill="#1A1A1A" d="M38.6,133.1c1,0.6,2.4,1.1,3.9,1.1c2.2,0,3.5-1.2,3.5-2.9c0-1.6-0.9-2.5-3.2-3.3c-2.7-1-4.4-2.4-4.4-4.8
		c0-2.6,2.2-4.6,5.4-4.6c1.7,0,3,0.4,3.7,0.8l-0.6,1.8c-0.5-0.3-1.7-0.8-3.2-0.8c-2.3,0-3.2,1.4-3.2,2.5c0,1.6,1,2.3,3.3,3.2
		c2.8,1.1,4.3,2.5,4.3,4.9c0,2.6-1.9,4.8-5.9,4.8c-1.6,0-3.4-0.5-4.3-1.1L38.6,133.1z"/>
	<path fill="#1A1A1A" d="M53.7,120.2v3.5h3.1v1.7h-3.1v6.5c0,1.5,0.4,2.3,1.6,2.3c0.6,0,1-0.1,1.3-0.1l0.1,1.6
		c-0.4,0.2-1.1,0.3-1.9,0.3c-1,0-1.8-0.3-2.4-0.9c-0.6-0.6-0.9-1.7-0.9-3.1v-6.6h-1.9v-1.7h1.9v-2.9L53.7,120.2z"/>
	<path fill="#1A1A1A" d="M70.1,129.6c0,4.5-3.1,6.4-6,6.4c-3.3,0-5.8-2.4-5.8-6.2c0-4,2.6-6.4,6-6.4
		C67.8,123.4,70.1,125.9,70.1,129.6z M60.5,129.7c0,2.6,1.5,4.6,3.7,4.6c2.1,0,3.7-2,3.7-4.7c0-2-1-4.6-3.6-4.6
		C61.7,125,60.5,127.4,60.5,129.7z"/>
	<path fill="#1A1A1A" d="M72.9,127.4c0-1.4,0-2.6-0.1-3.8h1.9l0.1,2.4h0.1c0.5-1.6,1.9-2.6,3.3-2.6c0.2,0,0.4,0,0.6,0.1v2.1
		c-0.2,0-0.5-0.1-0.8-0.1c-1.5,0-2.6,1.2-2.9,2.8c-0.1,0.3-0.1,0.6-0.1,1v6.4h-2.2V127.4z"/>
	<path fill="#1A1A1A" d="M83.6,120.3c0,0.7-0.5,1.3-1.4,1.3c-0.8,0-1.3-0.6-1.3-1.3c0-0.8,0.6-1.4,1.4-1.4
		C83.1,118.9,83.6,119.5,83.6,120.3z M81.2,135.8v-12.1h2.2v12.1H81.2z"/>
	<path fill="#1A1A1A" d="M88.3,130.1c0,3,1.9,4.2,4.1,4.2c1.6,0,2.5-0.3,3.3-0.6l0.4,1.6c-0.8,0.4-2.1,0.8-4,0.8
		c-3.7,0-5.9-2.4-5.9-6.1c0-3.6,2.1-6.5,5.7-6.5c3.9,0,5,3.5,5,5.7c0,0.4,0,0.8-0.1,1H88.3z M94.7,128.5c0-1.4-0.6-3.6-3-3.6
		c-2.2,0-3.2,2-3.4,3.6H94.7z"/>
	<path fill="#1A1A1A" d="M99.3,133.5c0.6,0.4,1.8,0.9,2.9,0.9c1.6,0,2.3-0.8,2.3-1.8c0-1-0.6-1.6-2.2-2.2c-2.2-0.8-3.2-2-3.2-3.4
		c0-1.9,1.6-3.5,4.2-3.5c1.2,0,2.3,0.4,3,0.8l-0.6,1.6c-0.5-0.3-1.3-0.7-2.5-0.7c-1.3,0-2,0.7-2,1.6c0,1,0.7,1.4,2.3,2
		c2.1,0.8,3.2,1.8,3.2,3.6c0,2.1-1.6,3.6-4.5,3.6c-1.3,0-2.5-0.3-3.4-0.8L99.3,133.5z"/>
	<path fill="#1A1A1A" d="M117.2,120.3c0,0.7-0.5,1.3-1.4,1.3c-0.8,0-1.3-0.6-1.3-1.3c0-0.8,0.6-1.4,1.4-1.4
		C116.7,118.9,117.2,119.5,117.2,120.3z M114.8,135.8v-12.1h2.2v12.1H114.8z"/>
	<path fill="#1A1A1A" d="M120.6,126.9c0-1.2,0-2.3-0.1-3.3h1.9l0.1,2h0.1c0.6-1.1,2-2.3,4-2.3c1.7,0,4.3,1,4.3,5.1v7.2h-2.2v-7
		c0-1.9-0.7-3.6-2.8-3.6c-1.4,0-2.6,1-2.9,2.2c-0.1,0.3-0.1,0.6-0.1,1v7.3h-2.2V126.9z"/>
	<path fill="#1A1A1A" d="M135,123.7l2.4,6.8c0.4,1.1,0.7,2.1,1,3.1h0.1c0.3-1,0.6-2,1-3.1l2.3-6.8h2.3l-4.7,12.1h-2.1l-4.6-12.1H135
		z"/>
	<path fill="#1A1A1A" d="M148.6,120.3c0,0.7-0.5,1.3-1.4,1.3c-0.8,0-1.3-0.6-1.3-1.3c0-0.8,0.6-1.4,1.4-1.4
		C148.1,118.9,148.6,119.5,148.6,120.3z M146.2,135.8v-12.1h2.2v12.1H146.2z"/>
	<path fill="#1A1A1A" d="M154.7,120.2v3.5h3.1v1.7h-3.1v6.5c0,1.5,0.4,2.3,1.6,2.3c0.6,0,1-0.1,1.3-0.1l0.1,1.6
		c-0.4,0.2-1.1,0.3-1.9,0.3c-1,0-1.8-0.3-2.4-0.9c-0.6-0.6-0.9-1.7-0.9-3.1v-6.6h-1.9v-1.7h1.9v-2.9L154.7,120.2z"/>
	<path fill="#1A1A1A" d="M161.4,130.1c0,3,1.9,4.2,4.1,4.2c1.6,0,2.5-0.3,3.3-0.6l0.4,1.6c-0.8,0.4-2.1,0.8-4,0.8
		c-3.7,0-5.9-2.4-5.9-6.1c0-3.6,2.1-6.5,5.7-6.5c3.9,0,5,3.5,5,5.7c0,0.4,0,0.8-0.1,1H161.4z M167.8,128.5c0-1.4-0.6-3.6-3-3.6
		c-2.2,0-3.2,2-3.4,3.6H167.8z"/>
	<path fill="#1A1A1A" d="M172.4,133.5c0.6,0.4,1.8,0.9,2.9,0.9c1.6,0,2.3-0.8,2.3-1.8c0-1-0.6-1.6-2.2-2.2c-2.2-0.8-3.2-2-3.2-3.4
		c0-1.9,1.6-3.5,4.2-3.5c1.2,0,2.3,0.4,3,0.8l-0.6,1.6c-0.5-0.3-1.3-0.7-2.5-0.7c-1.3,0-2,0.7-2,1.6c0,1,0.7,1.4,2.3,2
		c2.1,0.8,3.2,1.8,3.2,3.6c0,2.1-1.6,3.6-4.5,3.6c-1.3,0-2.5-0.3-3.4-0.8L172.4,133.5z"/>
	<path fill="#1A1A1A" d="M188.7,123.7l2.6,7.1c0.3,0.8,0.6,1.7,0.8,2.5h0.1c0.2-0.7,0.5-1.6,0.8-2.5l2.4-7.1h2.3l-3.3,8.6
		c-1.6,4.1-2.6,6.3-4.1,7.6c-1.1,0.9-2.1,1.3-2.7,1.4l-0.5-1.8c0.5-0.2,1.3-0.5,1.9-1.1c0.6-0.5,1.3-1.3,1.8-2.4
		c0.1-0.2,0.2-0.4,0.2-0.5s0-0.3-0.1-0.6l-4.5-11.1H188.7z"/>
	<path fill="#1A1A1A" d="M210.3,129.6c0,4.5-3.1,6.4-6,6.4c-3.3,0-5.8-2.4-5.8-6.2c0-4,2.6-6.4,6-6.4
		C208,123.4,210.3,125.9,210.3,129.6z M200.8,129.7c0,2.6,1.5,4.6,3.7,4.6c2.1,0,3.7-2,3.7-4.7c0-2-1-4.6-3.6-4.6
		C201.9,125,200.8,127.4,200.8,129.7z"/>
	<path fill="#1A1A1A" d="M223.3,132.5c0,1.2,0,2.3,0.1,3.3h-1.9l-0.1-2h-0.1c-0.6,1-1.8,2.2-4,2.2c-1.9,0-4.2-1-4.2-5.3v-7.1h2.2
		v6.7c0,2.3,0.7,3.8,2.7,3.8c1.5,0,2.5-1,2.9-2c0.1-0.3,0.2-0.7,0.2-1.1v-7.4h2.2V132.5z"/>
	<path fill="#1A1A1A" d="M234.7,120.3c0,0.7-0.5,1.3-1.4,1.3c-0.8,0-1.3-0.6-1.3-1.3c0-0.8,0.6-1.4,1.4-1.4
		C234.1,118.9,234.7,119.5,234.7,120.3z M232.2,135.8v-12.1h2.2v12.1H232.2z"/>
	<path fill="#1A1A1A" d="M238.1,126.9c0-1.2,0-2.3-0.1-3.3h1.9l0.1,2h0c0.6-1.1,2-2.3,4-2.3c1.7,0,4.3,1,4.3,5.1v7.2h-2.2v-7
		c0-1.9-0.7-3.6-2.8-3.6c-1.4,0-2.6,1-2.9,2.2c-0.1,0.3-0.1,0.6-0.1,1v7.3h-2.2V126.9z"/>
	<path fill="#1A1A1A" d="M254.5,120.2v3.5h3.1v1.7h-3.1v6.5c0,1.5,0.4,2.3,1.6,2.3c0.6,0,1-0.1,1.3-0.1l0.1,1.6
		c-0.4,0.2-1.1,0.3-1.9,0.3c-1,0-1.8-0.3-2.4-0.9c-0.6-0.6-0.9-1.7-0.9-3.1v-6.6h-1.9v-1.7h1.9v-2.9L254.5,120.2z"/>
	<path fill="#1A1A1A" d="M270.9,129.6c0,4.5-3.1,6.4-6,6.4c-3.3,0-5.8-2.4-5.8-6.2c0-4,2.6-6.4,6-6.4
		C268.5,123.4,270.9,125.9,270.9,129.6z M261.3,129.7c0,2.6,1.5,4.6,3.7,4.6c2.1,0,3.7-2,3.7-4.7c0-2-1-4.6-3.6-4.6
		C262.4,125,261.3,127.4,261.3,129.7z"/>
	<path fill="#1A1A1A" d="M285.7,135.8l-0.2-1.5h-0.1c-0.7,0.9-2,1.8-3.7,1.8c-2.4,0-3.7-1.7-3.7-3.5c0-2.9,2.6-4.5,7.3-4.5v-0.2
		c0-1-0.3-2.8-2.7-2.8c-1.1,0-2.3,0.4-3.1,0.9l-0.5-1.4c1-0.6,2.4-1.1,4-1.1c3.7,0,4.6,2.5,4.6,4.9v4.5c0,1,0.1,2.1,0.2,2.9H285.7z
		 M285.3,129.6c-2.4-0.1-5.1,0.4-5.1,2.7c0,1.4,0.9,2.1,2.1,2.1c1.6,0,2.6-1,2.9-2c0.1-0.2,0.1-0.5,0.1-0.7V129.6z"/>
	<path fill="#1A1A1A" d="M291,126.9c0-1.2,0-2.3-0.1-3.3h1.9l0.1,2h0c0.6-1.1,2-2.3,4-2.3c1.7,0,4.3,1,4.3,5.1v7.2h-2.2v-7
		c0-1.9-0.7-3.6-2.8-3.6c-1.4,0-2.6,1-2.9,2.2c-0.1,0.3-0.1,0.6-0.1,1v7.3H291V126.9z"/>
	<path fill="#1A1A1A" d="M312.7,120.3c0,0.7-0.5,1.3-1.4,1.3c-0.8,0-1.3-0.6-1.3-1.3c0-0.8,0.6-1.4,1.4-1.4
		C312.1,118.9,312.7,119.5,312.7,120.3z M310.2,135.8v-12.1h2.2v12.1H310.2z"/>
	<path fill="#1A1A1A" d="M316.1,126.9c0-1.2,0-2.3-0.1-3.3h1.9l0.1,2h0c0.6-1.1,2-2.3,4-2.3c1.7,0,4.3,1,4.3,5.1v7.2h-2.2v-7
		c0-1.9-0.7-3.6-2.8-3.6c-1.4,0-2.6,1-2.9,2.2c-0.1,0.3-0.1,0.6-0.1,1v7.3h-2.2V126.9z"/>
	<path fill="#1A1A1A" d="M332.5,120.2v3.5h3.1v1.7h-3.1v6.5c0,1.5,0.4,2.3,1.6,2.3c0.6,0,1-0.1,1.3-0.1l0.1,1.6
		c-0.4,0.2-1.1,0.3-1.9,0.3c-1,0-1.8-0.3-2.4-0.9c-0.6-0.6-0.9-1.7-0.9-3.1v-6.6h-1.9v-1.7h1.9v-2.9L332.5,120.2z"/>
	<path fill="#1A1A1A" d="M339.2,130.1c0,3,1.9,4.2,4.1,4.2c1.6,0,2.5-0.3,3.3-0.6l0.4,1.6c-0.8,0.4-2.1,0.8-4,0.8
		c-3.7,0-5.9-2.4-5.9-6.1c0-3.6,2.1-6.5,5.7-6.5c3.9,0,5,3.5,5,5.7c0,0.4,0,0.8-0.1,1H339.2z M345.6,128.5c0-1.4-0.6-3.6-3-3.6
		c-2.2,0-3.2,2-3.4,3.6H345.6z"/>
	<path fill="#1A1A1A" d="M350.5,127.4c0-1.4,0-2.6-0.1-3.8h1.9l0.1,2.4h0.1c0.5-1.6,1.9-2.6,3.3-2.6c0.2,0,0.4,0,0.6,0.1v2.1
		c-0.2,0-0.4-0.1-0.8-0.1c-1.5,0-2.6,1.2-2.9,2.8c0,0.3-0.1,0.6-0.1,1v6.4h-2.2V127.4z"/>
	<path fill="#1A1A1A" d="M365.2,135.8l-0.2-1.5H365c-0.7,0.9-2,1.8-3.7,1.8c-2.5,0-3.7-1.7-3.7-3.5c0-2.9,2.6-4.5,7.3-4.5v-0.2
		c0-1-0.3-2.8-2.8-2.8c-1.1,0-2.3,0.4-3.1,0.9l-0.5-1.4c1-0.6,2.4-1.1,4-1.1c3.7,0,4.6,2.5,4.6,4.9v4.5c0,1,0,2.1,0.2,2.9H365.2z
		 M364.9,129.6c-2.4-0.1-5.1,0.4-5.1,2.7c0,1.4,1,2.1,2.1,2.1c1.6,0,2.6-1,2.9-2c0.1-0.2,0.1-0.5,0.1-0.7V129.6z"/>
	<path fill="#1A1A1A" d="M379.2,135.3c-0.6,0.3-1.8,0.7-3.5,0.7c-3.7,0-6-2.5-6-6.2c0-3.7,2.5-6.4,6.5-6.4c1.3,0,2.4,0.3,3,0.6
		l-0.5,1.7c-0.5-0.3-1.3-0.6-2.5-0.6c-2.8,0-4.3,2-4.3,4.6c0,2.8,1.8,4.5,4.2,4.5c1.2,0,2.1-0.3,2.7-0.6L379.2,135.3z"/>
	<path fill="#1A1A1A" d="M384.7,120.2v3.5h3.2v1.7h-3.2v6.5c0,1.5,0.4,2.3,1.7,2.3c0.6,0,1-0.1,1.3-0.1l0.1,1.6
		c-0.4,0.2-1.1,0.3-1.9,0.3c-1,0-1.8-0.3-2.4-0.9c-0.6-0.6-0.8-1.7-0.8-3.1v-6.6h-1.9v-1.7h1.9v-2.9L384.7,120.2z"/>
	<path fill="#1A1A1A" d="M392.8,120.3c0,0.7-0.5,1.3-1.4,1.3c-0.8,0-1.3-0.6-1.3-1.3c0-0.8,0.6-1.4,1.4-1.4
		C392.3,118.9,392.8,119.5,392.8,120.3z M390.4,135.8v-12.1h2.2v12.1H390.4z"/>
	<path fill="#1A1A1A" d="M397.1,123.7l2.4,6.8c0.4,1.1,0.7,2.1,1,3.1h0.1c0.3-1,0.6-2,1-3.1l2.3-6.8h2.3l-4.8,12.1h-2.1l-4.6-12.1
		H397.1z"/>
	<path fill="#1A1A1A" d="M409.2,130.1c0.1,3,1.9,4.2,4.1,4.2c1.6,0,2.5-0.3,3.3-0.6l0.4,1.6c-0.8,0.4-2.1,0.8-4,0.8
		c-3.7,0-5.9-2.4-5.9-6.1c0-3.6,2.2-6.5,5.7-6.5c3.9,0,5,3.5,5,5.7c0,0.4,0,0.8-0.1,1H409.2z M415.7,128.5c0-1.4-0.6-3.6-3.1-3.6
		c-2.2,0-3.2,2-3.4,3.6H415.7z"/>
	<path fill="#1A1A1A" d="M418.8,138.8c0.5-1.5,1.2-4.1,1.5-6l2.4-0.2c-0.6,2.1-1.7,4.9-2.4,6.1L418.8,138.8z"/>
	<path fill="#1A1A1A" d="M433.1,120.3c0,0.7-0.5,1.3-1.4,1.3c-0.8,0-1.3-0.6-1.3-1.3c0-0.8,0.6-1.4,1.4-1.4
		C432.6,118.9,433.1,119.5,433.1,120.3z M430.7,135.8v-12.1h2.2v12.1H430.7z"/>
	<path fill="#1A1A1A" d="M436.5,126.9c0-1.2,0-2.3-0.1-3.3h1.9l0.1,2h0c0.6-1.1,2-2.3,4-2.3c1.7,0,4.3,1,4.3,5.1v7.2h-2.2v-7
		c0-1.9-0.7-3.6-2.8-3.6c-1.4,0-2.6,1-2.9,2.2c-0.1,0.3-0.2,0.6-0.2,1v7.3h-2.2V126.9z"/>
	<path fill="#1A1A1A" d="M455.5,128.2v1.6h-6.2v-1.6H455.5z"/>
	<path fill="#1A1A1A" d="M469,118v14.6c0,1.1,0,2.3,0.1,3.1h-2l-0.1-2.1H467c-0.7,1.3-2.1,2.4-4.1,2.4c-2.9,0-5.2-2.5-5.2-6.1
		c0-4,2.5-6.5,5.4-6.5c1.8,0,3.1,0.9,3.6,1.8h0.1V118H469z M466.8,128.6c0-0.3,0-0.6-0.1-0.9c-0.3-1.4-1.5-2.5-3.2-2.5
		c-2.3,0-3.6,2-3.6,4.7c0,2.4,1.2,4.5,3.6,4.5c1.5,0,2.8-1,3.2-2.6c0.1-0.3,0.1-0.6,0.1-0.9V128.6z"/>
	<path fill="#1A1A1A" d="M473.9,130.1c0.1,3,1.9,4.2,4.1,4.2c1.6,0,2.5-0.3,3.3-0.6l0.4,1.6c-0.8,0.4-2.1,0.8-4,0.8
		c-3.7,0-5.9-2.4-5.9-6.1c0-3.6,2.2-6.5,5.7-6.5c3.9,0,5,3.5,5,5.7c0,0.4,0,0.8-0.1,1H473.9z M480.3,128.5c0-1.4-0.6-3.6-3.1-3.6
		c-2.2,0-3.2,2-3.4,3.6H480.3z"/>
	<path fill="#1A1A1A" d="M485.2,127.6c0-1.5,0-2.8-0.1-3.9h2l0.1,2.1h0.1c0.9-1.5,2.3-2.3,4.3-2.3c2.9,0,5.1,2.5,5.1,6.1
		c0,4.3-2.6,6.5-5.5,6.5c-1.6,0-3-0.7-3.7-1.9h0v6.6h-2.2V127.6z M487.3,130.8c0,0.3,0,0.6,0.1,0.9c0.4,1.5,1.7,2.6,3.3,2.6
		c2.3,0,3.7-1.9,3.7-4.7c0-2.4-1.3-4.5-3.6-4.5c-1.5,0-2.9,1.1-3.3,2.7c-0.1,0.3-0.2,0.6-0.2,0.9V130.8z"/>
	<path fill="#1A1A1A" d="M502,120.2v3.5h3.1v1.7H502v6.5c0,1.5,0.4,2.3,1.6,2.3c0.6,0,1-0.1,1.3-0.1l0.1,1.6
		c-0.4,0.2-1.1,0.3-1.9,0.3c-1,0-1.8-0.3-2.4-0.9c-0.6-0.6-0.8-1.7-0.8-3.1v-6.6H498v-1.7h1.9v-2.9L502,120.2z"/>
	<path fill="#1A1A1A" d="M507.7,118h2.2v7.5h0.1c0.3-0.6,0.9-1.2,1.6-1.5c0.7-0.4,1.4-0.6,2.3-0.6c1.6,0,4.2,1,4.2,5.2v7.2h-2.2
		v-6.9c0-1.9-0.7-3.6-2.8-3.6c-1.4,0-2.5,1-2.9,2.2c-0.1,0.3-0.2,0.6-0.2,1v7.3h-2.2V118z"/>
	<path fill="#1A1A1A" d="M535.5,135.3c-0.6,0.3-1.8,0.7-3.5,0.7c-3.7,0-6-2.5-6-6.2c0-3.7,2.5-6.4,6.5-6.4c1.3,0,2.4,0.3,3,0.6
		l-0.5,1.7c-0.5-0.3-1.3-0.6-2.5-0.6c-2.8,0-4.3,2-4.3,4.6c0,2.8,1.8,4.5,4.2,4.5c1.2,0,2.1-0.3,2.7-0.6L535.5,135.3z"/>
	<path fill="#1A1A1A" d="M548.8,129.6c0,4.5-3.1,6.4-6,6.4c-3.3,0-5.8-2.4-5.8-6.2c0-4,2.7-6.4,6-6.4
		C546.5,123.4,548.8,125.9,548.8,129.6z M539.2,129.7c0,2.6,1.5,4.6,3.7,4.6c2.1,0,3.7-2,3.7-4.7c0-2-1-4.6-3.6-4.6
		S539.2,127.4,539.2,129.7z"/>
	<path fill="#1A1A1A" d="M551.6,126.9c0-1.2,0-2.3-0.1-3.3h1.9l0.1,2h0c0.6-1.1,2-2.3,4-2.3c1.7,0,4.3,1,4.3,5.1v7.2h-2.2v-7
		c0-1.9-0.7-3.6-2.8-3.6c-1.4,0-2.6,1-2.9,2.2c-0.1,0.3-0.2,0.6-0.2,1v7.3h-2.2V126.9z"/>
	<path fill="#1A1A1A" d="M566,123.7l2.4,6.8c0.4,1.1,0.7,2.1,1,3.1h0.1c0.3-1,0.6-2,1-3.1l2.3-6.8h2.3l-4.7,12.1h-2.1l-4.6-12.1H566
		z"/>
	<path fill="#1A1A1A" d="M578.2,130.1c0.1,3,2,4.2,4.2,4.2c1.6,0,2.5-0.3,3.3-0.6l0.4,1.6c-0.8,0.4-2.1,0.8-4,0.8
		c-3.7,0-5.9-2.4-5.9-6.1c0-3.6,2.1-6.5,5.7-6.5c3.9,0,5,3.5,5,5.7c0,0.4-0.1,0.8-0.1,1H578.2z M584.6,128.5c0-1.4-0.6-3.6-3-3.6
		c-2.2,0-3.2,2-3.4,3.6H584.6z"/>
	<path fill="#1A1A1A" d="M589.5,127.4c0-1.4,0-2.6-0.1-3.8h1.9l0.1,2.4h0.1c0.5-1.6,1.9-2.6,3.3-2.6c0.2,0,0.4,0,0.6,0.1v2.1
		c-0.2,0-0.4-0.1-0.8-0.1c-1.5,0-2.6,1.2-2.9,2.8c0,0.3-0.1,0.6-0.1,1v6.4h-2.2V127.4z"/>
	<path fill="#1A1A1A" d="M597.3,133.5c0.7,0.4,1.8,0.9,2.9,0.9c1.6,0,2.3-0.8,2.3-1.8c0-1-0.6-1.6-2.2-2.2c-2.2-0.8-3.2-2-3.2-3.4
		c0-1.9,1.6-3.5,4.2-3.5c1.2,0,2.3,0.4,3,0.8l-0.5,1.6c-0.5-0.3-1.3-0.7-2.5-0.7c-1.3,0-2,0.7-2,1.6c0,1,0.7,1.4,2.3,2
		c2.1,0.8,3.2,1.8,3.2,3.6c0,2.1-1.7,3.6-4.5,3.6c-1.3,0-2.6-0.3-3.4-0.8L597.3,133.5z"/>
	<path fill="#1A1A1A" d="M614.2,135.8l-0.2-1.5H614c-0.7,0.9-2,1.8-3.7,1.8c-2.4,0-3.7-1.7-3.7-3.5c0-2.9,2.6-4.5,7.3-4.5v-0.2
		c0-1-0.3-2.8-2.8-2.8c-1.1,0-2.3,0.4-3.1,0.9l-0.5-1.4c1-0.6,2.4-1.1,4-1.1c3.7,0,4.6,2.5,4.6,4.9v4.5c0,1,0.1,2.1,0.2,2.9H614.2z
		 M613.9,129.6c-2.4-0.1-5.1,0.4-5.1,2.7c0,1.4,1,2.1,2.1,2.1c1.6,0,2.6-1,2.9-2c0.1-0.2,0.1-0.5,0.1-0.7V129.6z"/>
	<path fill="#1A1A1A" d="M622.1,120.2v3.5h3.1v1.7h-3.1v6.5c0,1.5,0.4,2.3,1.6,2.3c0.6,0,1-0.1,1.3-0.1l0.1,1.6
		c-0.4,0.2-1.1,0.3-1.9,0.3c-1,0-1.8-0.3-2.4-0.9c-0.6-0.6-0.8-1.7-0.8-3.1v-6.6h-1.9v-1.7h1.9v-2.9L622.1,120.2z"/>
	<path fill="#1A1A1A" d="M630.2,120.3c0,0.7-0.5,1.3-1.4,1.3c-0.8,0-1.3-0.6-1.3-1.3c0-0.8,0.6-1.4,1.4-1.4
		C629.7,118.9,630.2,119.5,630.2,120.3z M627.8,135.8v-12.1h2.2v12.1H627.8z"/>
	<path fill="#1A1A1A" d="M644.6,129.6c0,4.5-3.1,6.4-6,6.4c-3.3,0-5.8-2.4-5.8-6.2c0-4,2.7-6.4,6-6.4
		C642.2,123.4,644.6,125.9,644.6,129.6z M635,129.7c0,2.6,1.5,4.6,3.7,4.6c2.1,0,3.7-2,3.7-4.7c0-2-1-4.6-3.6-4.6
		S635,127.4,635,129.7z"/>
	<path fill="#1A1A1A" d="M647.3,126.9c0-1.2,0-2.3-0.1-3.3h1.9l0.1,2h0c0.6-1.1,2-2.3,4-2.3c1.7,0,4.3,1,4.3,5.1v7.2h-2.2v-7
		c0-1.9-0.7-3.6-2.8-3.6c-1.4,0-2.6,1-2.9,2.2c-0.1,0.3-0.2,0.6-0.2,1v7.3h-2.2V126.9z"/>
	<path fill="#1A1A1A" d="M673.2,135.8l-0.2-1.5H673c-0.7,0.9-2,1.8-3.7,1.8c-2.4,0-3.7-1.7-3.7-3.5c0-2.9,2.6-4.5,7.3-4.5v-0.2
		c0-1-0.3-2.8-2.8-2.8c-1.1,0-2.3,0.4-3.1,0.9l-0.5-1.4c1-0.6,2.4-1.1,4-1.1c3.7,0,4.6,2.5,4.6,4.9v4.5c0,1,0.1,2.1,0.2,2.9H673.2z
		 M672.9,129.6c-2.4-0.1-5.1,0.4-5.1,2.7c0,1.4,1,2.1,2.1,2.1c1.6,0,2.6-1,2.9-2c0.1-0.2,0.1-0.5,0.1-0.7V129.6z"/>
	<path fill="#1A1A1A" d="M678.5,135.8c0-0.8,0.1-2,0.1-3.1V118h2.2v7.6h0.1c0.8-1.3,2.2-2.2,4.1-2.2c3,0,5.1,2.5,5.1,6.2
		c0,4.3-2.7,6.5-5.4,6.5c-1.8,0-3.1-0.7-4-2.3h-0.1l-0.1,2H678.5z M680.7,130.9c0,0.3,0.1,0.5,0.1,0.8c0.4,1.5,1.7,2.6,3.3,2.6
		c2.3,0,3.7-1.9,3.7-4.6c0-2.4-1.2-4.5-3.6-4.5c-1.5,0-2.9,1-3.3,2.7c0,0.2-0.1,0.5-0.1,0.9V130.9z"/>
	<path fill="#1A1A1A" d="M703.7,129.6c0,4.5-3.1,6.4-6,6.4c-3.3,0-5.8-2.4-5.8-6.2c0-4,2.7-6.4,6-6.4
		C701.4,123.4,703.7,125.9,703.7,129.6z M694.1,129.7c0,2.6,1.5,4.6,3.7,4.6c2.1,0,3.7-2,3.7-4.7c0-2-1-4.6-3.6-4.6
		S694.1,127.4,694.1,129.7z"/>
	<path fill="#1A1A1A" d="M716.6,132.5c0,1.2,0,2.3,0.1,3.3h-1.9l-0.1-2h-0.1c-0.6,1-1.8,2.2-4,2.2c-1.9,0-4.2-1-4.2-5.3v-7.1h2.2
		v6.7c0,2.3,0.7,3.8,2.7,3.8c1.5,0,2.5-1,2.9-2c0.1-0.3,0.2-0.7,0.2-1.1v-7.4h2.2V132.5z"/>
	<path fill="#1A1A1A" d="M722.9,120.2v3.5h3.1v1.7h-3.1v6.5c0,1.5,0.4,2.3,1.6,2.3c0.6,0,1-0.1,1.3-0.1l0.1,1.6
		c-0.4,0.2-1.1,0.3-1.9,0.3c-1,0-1.8-0.3-2.4-0.9c-0.6-0.6-0.8-1.7-0.8-3.1v-6.6h-1.9v-1.7h1.9v-2.9L722.9,120.2z"/>
	<path fill="#1A1A1A" d="M84.4,153.7c0,0.9-0.1,1.8-0.1,3.3v7c0,2.8-0.5,4.5-1.7,5.5c-1.2,1.1-2.9,1.4-4.4,1.4c-1.4,0-3-0.3-4-1
		l0.5-1.7c0.8,0.5,2,0.9,3.5,0.9c2.2,0,3.9-1.2,3.9-4.2v-1.4h0c-0.7,1.1-2,2-3.8,2c-3,0-5.1-2.5-5.1-5.9c0-4.1,2.7-6.4,5.4-6.4
		c2.1,0,3.2,1.1,3.8,2.1h0.1l0.1-1.8H84.4z M82.1,158.4c0-0.4,0-0.7-0.1-1c-0.4-1.3-1.5-2.3-3.1-2.3c-2.1,0-3.6,1.8-3.6,4.6
		c0,2.4,1.2,4.3,3.6,4.3c1.3,0,2.6-0.8,3-2.2c0.1-0.4,0.2-0.8,0.2-1.2V158.4z"/>
	<path fill="#1A1A1A" d="M87.8,157.4c0-1.4,0-2.6-0.1-3.8h1.9l0.1,2.4h0.1c0.5-1.6,1.9-2.6,3.3-2.6c0.2,0,0.4,0,0.6,0.1v2.1
		c-0.2,0-0.5-0.1-0.8-0.1c-1.5,0-2.6,1.2-2.9,2.8c-0.1,0.3-0.1,0.6-0.1,1v6.4h-2.2V157.4z"/>
	<path fill="#1A1A1A" d="M96.9,160.1c0,3,1.9,4.2,4.1,4.2c1.6,0,2.5-0.3,3.3-0.6l0.4,1.6c-0.8,0.4-2.1,0.8-4,0.8
		c-3.7,0-5.9-2.4-5.9-6.1c0-3.6,2.1-6.5,5.7-6.5c3.9,0,5,3.5,5,5.7c0,0.4,0,0.8-0.1,1H96.9z M103.4,158.5c0-1.4-0.6-3.6-3-3.6
		c-2.2,0-3.2,2-3.4,3.6H103.4z"/>
	<path fill="#1A1A1A" d="M114.9,165.8l-0.2-1.5h-0.1c-0.7,0.9-2,1.8-3.7,1.8c-2.4,0-3.7-1.7-3.7-3.5c0-2.9,2.6-4.5,7.3-4.5v-0.2
		c0-1-0.3-2.8-2.7-2.8c-1.1,0-2.3,0.4-3.1,0.9l-0.5-1.4c1-0.6,2.4-1.1,4-1.1c3.7,0,4.6,2.5,4.6,4.9v4.5c0,1,0.1,2.1,0.2,2.9H114.9z
		 M114.6,159.6c-2.4-0.1-5.1,0.4-5.1,2.7c0,1.4,0.9,2.1,2.1,2.1c1.6,0,2.6-1,2.9-2c0.1-0.2,0.1-0.5,0.1-0.7V159.6z"/>
	<path fill="#1A1A1A" d="M122.8,150.2v3.5h3.1v1.7h-3.1v6.5c0,1.5,0.4,2.3,1.6,2.3c0.6,0,1-0.1,1.3-0.1l0.1,1.6
		c-0.4,0.2-1.1,0.3-1.9,0.3c-1,0-1.8-0.3-2.4-0.9c-0.6-0.6-0.9-1.7-0.9-3.1v-6.6h-1.9v-1.7h1.9v-2.9L122.8,150.2z"/>
	<path fill="#1A1A1A" d="M140.5,165.8l-0.2-1.5h-0.1c-0.7,0.9-2,1.8-3.7,1.8c-2.4,0-3.7-1.7-3.7-3.5c0-2.9,2.6-4.5,7.3-4.5v-0.2
		c0-1-0.3-2.8-2.7-2.8c-1.1,0-2.3,0.4-3.1,0.9l-0.5-1.4c1-0.6,2.4-1.1,4-1.1c3.7,0,4.6,2.5,4.6,4.9v4.5c0,1,0.1,2.1,0.2,2.9H140.5z
		 M140.1,159.6c-2.4-0.1-5.1,0.4-5.1,2.7c0,1.4,0.9,2.1,2.1,2.1c1.6,0,2.6-1,2.9-2c0.1-0.2,0.1-0.5,0.1-0.7V159.6z"/>
	<path fill="#1A1A1A" d="M145.8,157.4c0-1.4,0-2.6-0.1-3.8h1.9l0.1,2.4h0.1c0.5-1.6,1.9-2.6,3.3-2.6c0.2,0,0.4,0,0.6,0.1v2.1
		c-0.2,0-0.5-0.1-0.8-0.1c-1.5,0-2.6,1.2-2.9,2.8c-0.1,0.3-0.1,0.6-0.1,1v6.4h-2.2V157.4z"/>
	<path fill="#1A1A1A" d="M157.2,150.2v3.5h3.1v1.7h-3.1v6.5c0,1.5,0.4,2.3,1.6,2.3c0.6,0,1-0.1,1.3-0.1l0.1,1.6
		c-0.4,0.2-1.1,0.3-1.9,0.3c-1,0-1.8-0.3-2.4-0.9c-0.6-0.6-0.9-1.7-0.9-3.1v-6.6h-1.9v-1.7h1.9v-2.9L157.2,150.2z"/>
	<path fill="#1A1A1A" d="M164,153.7l1.6,6.1c0.4,1.4,0.7,2.6,0.9,3.8h0.1c0.3-1.2,0.7-2.5,1.1-3.8l2-6.2h1.8l1.9,6
		c0.5,1.4,0.8,2.7,1.1,3.9h0.1c0.2-1.2,0.5-2.5,0.9-3.9l1.7-6.1h2.2l-3.9,12.1h-2l-1.8-5.8c-0.4-1.3-0.8-2.5-1.1-4h0
		c-0.3,1.4-0.7,2.7-1.1,4l-1.9,5.7h-2l-3.6-12.1H164z"/>
	<path fill="#1A1A1A" d="M192.2,159.6c0,4.5-3.1,6.4-6,6.4c-3.3,0-5.8-2.4-5.8-6.2c0-4,2.6-6.4,6-6.4
		C189.8,153.4,192.2,155.9,192.2,159.6z M182.6,159.7c0,2.6,1.5,4.6,3.7,4.6c2.1,0,3.7-2,3.7-4.7c0-2-1-4.6-3.6-4.6
		C183.7,155,182.6,157.4,182.6,159.7z"/>
	<path fill="#1A1A1A" d="M195,157.4c0-1.4,0-2.6-0.1-3.8h1.9l0.1,2.4h0.1c0.5-1.6,1.9-2.6,3.3-2.6c0.2,0,0.4,0,0.6,0.1v2.1
		c-0.2,0-0.4-0.1-0.7-0.1c-1.5,0-2.6,1.2-2.9,2.8c-0.1,0.3-0.1,0.6-0.1,1v6.4H195V157.4z"/>
	<path fill="#1A1A1A" d="M205.4,159.2L205.4,159.2c0.4-0.4,0.8-0.9,1.1-1.4l3.5-4.2h2.6l-4.7,5l5.3,7.1h-2.7l-4.2-5.8l-1.1,1.2v4.5
		h-2.2V148h2.2V159.2z"/>
	<path fill="#1A1A1A" d="M214.7,163.5c0.6,0.4,1.8,0.9,2.9,0.9c1.6,0,2.3-0.8,2.3-1.8c0-1-0.6-1.6-2.2-2.2c-2.2-0.8-3.2-2-3.2-3.4
		c0-1.9,1.6-3.5,4.2-3.5c1.2,0,2.3,0.4,3,0.8l-0.6,1.6c-0.5-0.3-1.3-0.7-2.5-0.7c-1.3,0-2,0.7-2,1.6c0,1,0.7,1.4,2.3,2
		c2.1,0.8,3.2,1.8,3.2,3.6c0,2.1-1.6,3.6-4.5,3.6c-1.3,0-2.5-0.3-3.4-0.8L214.7,163.5z"/>
	<path fill="#1A1A1A" d="M223.5,168.8c0.5-1.5,1.2-4.1,1.5-6l2.4-0.2c-0.6,2.1-1.7,4.9-2.4,6.1L223.5,168.8z M224.5,155.7
		c0-0.9,0.6-1.6,1.5-1.6c0.9,0,1.5,0.6,1.5,1.6c0,0.9-0.6,1.5-1.5,1.5C225.1,157.2,224.5,156.5,224.5,155.7z"/>
	<path fill="#1A1A1A" d="M235.6,165.8v-10.4h-1.7v-1.7h1.7v-0.6c0-1.7,0.4-3.2,1.4-4.2c0.8-0.8,1.9-1.1,2.9-1.1
		c0.8,0,1.4,0.2,1.9,0.3l-0.3,1.7c-0.3-0.1-0.8-0.3-1.4-0.3c-1.9,0-2.3,1.6-2.3,3.5v0.6h2.9v1.7h-2.9v10.4H235.6z"/>
	<path fill="#1A1A1A" d="M242.6,157.4c0-1.4,0-2.6-0.1-3.8h1.9l0.1,2.4h0.1c0.5-1.6,1.9-2.6,3.3-2.6c0.2,0,0.4,0,0.6,0.1v2.1
		c-0.2,0-0.5-0.1-0.8-0.1c-1.5,0-2.6,1.2-2.9,2.8c-0.1,0.3-0.1,0.6-0.1,1v6.4h-2.2V157.4z"/>
	<path fill="#1A1A1A" d="M261.5,159.6c0,4.5-3.1,6.4-6,6.4c-3.3,0-5.8-2.4-5.8-6.2c0-4,2.6-6.4,6-6.4
		C259.1,153.4,261.5,155.9,261.5,159.6z M251.9,159.7c0,2.6,1.5,4.6,3.7,4.6c2.1,0,3.7-2,3.7-4.7c0-2-1-4.6-3.6-4.6
		C253,155,251.9,157.4,251.9,159.7z"/>
	<path fill="#1A1A1A" d="M264.3,156.9c0-1.2,0-2.3-0.1-3.3h1.9l0.1,1.9h0.1c0.7-1.1,1.8-2.2,3.8-2.2c1.6,0,2.9,1,3.4,2.4h0
		c0.4-0.7,0.9-1.2,1.3-1.6c0.7-0.6,1.5-0.9,2.7-0.9c1.6,0,4,1,4,5.2v7.1h-2.1v-6.8c0-2.3-0.8-3.7-2.6-3.7c-1.2,0-2.2,0.9-2.6,2
		c-0.1,0.3-0.2,0.7-0.2,1.1v7.5h-2.1v-7.2c0-1.9-0.8-3.3-2.5-3.3c-1.4,0-2.4,1.1-2.7,2.2c-0.1,0.3-0.2,0.7-0.2,1.1v7.3h-2.1V156.9z"
		/>
	<path fill="#1A1A1A" d="M290.4,148h2.2v7.5h0.1c0.3-0.6,0.9-1.2,1.6-1.5c0.6-0.4,1.4-0.6,2.2-0.6c1.6,0,4.2,1,4.2,5.2v7.2h-2.2
		v-6.9c0-1.9-0.7-3.6-2.8-3.6c-1.4,0-2.5,1-2.9,2.2c-0.1,0.3-0.1,0.6-0.1,1v7.3h-2.2V148z"/>
	<path fill="#1A1A1A" d="M306.8,150.3c0,0.7-0.5,1.3-1.4,1.3c-0.8,0-1.3-0.6-1.3-1.3c0-0.8,0.6-1.4,1.4-1.4
		C306.2,148.9,306.8,149.5,306.8,150.3z M304.3,165.8v-12.1h2.2v12.1H304.3z"/>
	<path fill="#1A1A1A" d="M320.6,148v14.6c0,1.1,0,2.3,0.1,3.1h-2l-0.1-2.1h0c-0.7,1.3-2.1,2.4-4.1,2.4c-2.9,0-5.2-2.5-5.2-6.1
		c0-4,2.5-6.5,5.4-6.5c1.8,0,3.1,0.9,3.6,1.8h0.1V148H320.6z M318.4,158.6c0-0.3,0-0.6-0.1-0.9c-0.3-1.4-1.5-2.5-3.2-2.5
		c-2.3,0-3.6,2-3.6,4.7c0,2.4,1.2,4.5,3.6,4.5c1.5,0,2.8-1,3.2-2.6c0.1-0.3,0.1-0.6,0.1-0.9V158.6z"/>
	<path fill="#1A1A1A" d="M334.7,148v14.6c0,1.1,0,2.3,0.1,3.1h-2l-0.1-2.1h0c-0.7,1.3-2.1,2.4-4.1,2.4c-2.9,0-5.2-2.5-5.2-6.1
		c0-4,2.5-6.5,5.4-6.5c1.8,0,3.1,0.9,3.6,1.8h0.1V148H334.7z M332.5,158.6c0-0.3,0-0.6-0.1-0.9c-0.3-1.4-1.5-2.5-3.2-2.5
		c-2.3,0-3.6,2-3.6,4.7c0,2.4,1.2,4.5,3.6,4.5c1.5,0,2.8-1,3.2-2.6c0.1-0.3,0.1-0.6,0.1-0.9V158.6z"/>
	<path fill="#1A1A1A" d="M339.6,160.1c0,3,1.9,4.2,4.1,4.2c1.6,0,2.5-0.3,3.3-0.6l0.4,1.6c-0.8,0.4-2.1,0.8-4,0.8
		c-3.7,0-5.9-2.4-5.9-6.1c0-3.6,2.1-6.5,5.7-6.5c3.9,0,5,3.5,5,5.7c0,0.4-0.1,0.8-0.1,1H339.6z M346,158.5c0-1.4-0.6-3.6-3-3.6
		c-2.2,0-3.2,2-3.4,3.6H346z"/>
	<path fill="#1A1A1A" d="M350.9,156.9c0-1.2,0-2.3-0.1-3.3h1.9l0.1,2h0c0.6-1.1,2-2.3,4-2.3c1.7,0,4.3,1,4.3,5.1v7.2H359v-7
		c0-1.9-0.7-3.6-2.8-3.6c-1.4,0-2.6,1-2.9,2.2c-0.1,0.3-0.1,0.6-0.1,1v7.3h-2.2V156.9z"/>
	<path fill="#1A1A1A" d="M380.5,148v14.6c0,1.1,0,2.3,0.1,3.1h-2l-0.1-2.1h-0.1c-0.7,1.3-2.2,2.4-4.1,2.4c-2.9,0-5.2-2.5-5.2-6.1
		c0-4,2.5-6.5,5.4-6.5c1.8,0,3.1,0.9,3.7,1.8h0V148H380.5z M378.3,158.6c0-0.3,0-0.6-0.1-0.9c-0.3-1.4-1.5-2.5-3.2-2.5
		c-2.3,0-3.6,2-3.6,4.7c0,2.4,1.2,4.5,3.6,4.5c1.5,0,2.8-1,3.2-2.6c0.1-0.3,0.1-0.6,0.1-0.9V158.6z"/>
	<path fill="#1A1A1A" d="M385.4,160.1c0.1,3,2,4.2,4.2,4.2c1.6,0,2.5-0.3,3.3-0.6l0.4,1.6c-0.8,0.4-2.1,0.8-4,0.8
		c-3.7,0-5.9-2.4-5.9-6.1c0-3.6,2.1-6.5,5.7-6.5c3.9,0,5,3.5,5,5.7c0,0.4-0.1,0.8-0.1,1H385.4z M391.8,158.5c0-1.4-0.6-3.6-3-3.6
		c-2.2,0-3.2,2-3.4,3.6H391.8z"/>
	<path fill="#1A1A1A" d="M399.3,150.2v3.5h3.2v1.7h-3.2v6.5c0,1.5,0.4,2.3,1.7,2.3c0.6,0,1-0.1,1.3-0.1l0.1,1.6
		c-0.4,0.2-1.1,0.3-1.9,0.3c-1,0-1.8-0.3-2.4-0.9c-0.6-0.6-0.8-1.7-0.8-3.1v-6.6h-1.9v-1.7h1.9v-2.9L399.3,150.2z"/>
	<path fill="#1A1A1A" d="M411.6,165.8l-0.2-1.5h-0.1c-0.7,0.9-2,1.8-3.7,1.8c-2.4,0-3.7-1.7-3.7-3.5c0-2.9,2.6-4.5,7.3-4.5v-0.2
		c0-1-0.3-2.8-2.8-2.8c-1.1,0-2.3,0.4-3.1,0.9l-0.5-1.4c1-0.6,2.4-1.1,4-1.1c3.7,0,4.6,2.5,4.6,4.9v4.5c0,1,0.1,2.1,0.2,2.9H411.6z
		 M411.3,159.6c-2.4-0.1-5.1,0.4-5.1,2.7c0,1.4,1,2.1,2.1,2.1c1.6,0,2.6-1,2.9-2c0.1-0.2,0.1-0.5,0.1-0.7V159.6z"/>
	<path fill="#1A1A1A" d="M419.4,150.3c0,0.7-0.5,1.3-1.4,1.3c-0.8,0-1.3-0.6-1.3-1.3c0-0.8,0.6-1.4,1.4-1.4
		C418.9,148.9,419.4,149.5,419.4,150.3z M417,165.8v-12.1h2.2v12.1H417z"/>
	<path fill="#1A1A1A" d="M422.8,148h2.2v17.7h-2.2V148z"/>
	<path fill="#1A1A1A" d="M428.4,163.5c0.7,0.4,1.8,0.9,2.9,0.9c1.6,0,2.3-0.8,2.3-1.8c0-1-0.6-1.6-2.2-2.2c-2.2-0.8-3.2-2-3.2-3.4
		c0-1.9,1.6-3.5,4.2-3.5c1.2,0,2.3,0.4,3,0.8l-0.5,1.6c-0.5-0.3-1.3-0.7-2.5-0.7c-1.3,0-2,0.7-2,1.6c0,1,0.7,1.4,2.3,2
		c2.1,0.8,3.2,1.8,3.2,3.6c0,2.1-1.7,3.6-4.5,3.6c-1.3,0-2.6-0.3-3.4-0.8L428.4,163.5z"/>
	<path fill="#1A1A1A" d="M446.6,150.2v3.5h3.2v1.7h-3.2v6.5c0,1.5,0.4,2.3,1.7,2.3c0.6,0,1-0.1,1.3-0.1l0.1,1.6
		c-0.4,0.2-1.1,0.3-1.9,0.3c-1,0-1.8-0.3-2.4-0.9c-0.6-0.6-0.8-1.7-0.8-3.1v-6.6h-1.9v-1.7h1.9v-2.9L446.6,150.2z"/>
	<path fill="#1A1A1A" d="M463,159.6c0,4.5-3.1,6.4-6,6.4c-3.3,0-5.8-2.4-5.8-6.2c0-4,2.7-6.4,6-6.4C460.7,153.4,463,155.9,463,159.6
		z M453.4,159.7c0,2.6,1.5,4.6,3.7,4.6c2.1,0,3.7-2,3.7-4.7c0-2-1-4.6-3.6-4.6S453.4,157.4,453.4,159.7z"/>
	<path fill="#1A1A1A" d="M470.8,163.5c0.7,0.4,1.8,0.9,2.9,0.9c1.6,0,2.3-0.8,2.3-1.8c0-1-0.6-1.6-2.2-2.2c-2.2-0.8-3.2-2-3.2-3.4
		c0-1.9,1.6-3.5,4.2-3.5c1.2,0,2.3,0.4,3,0.8l-0.5,1.6c-0.5-0.3-1.3-0.7-2.5-0.7c-1.3,0-2,0.7-2,1.6c0,1,0.7,1.4,2.3,2
		c2.1,0.8,3.2,1.8,3.2,3.6c0,2.1-1.7,3.6-4.5,3.6c-1.3,0-2.6-0.3-3.4-0.8L470.8,163.5z"/>
	<path fill="#1A1A1A" d="M482.2,160.1c0.1,3,1.9,4.2,4.1,4.2c1.6,0,2.5-0.3,3.3-0.6l0.4,1.6c-0.8,0.4-2.1,0.8-4,0.8
		c-3.7,0-5.9-2.4-5.9-6.1c0-3.6,2.2-6.5,5.7-6.5c3.9,0,5,3.5,5,5.7c0,0.4,0,0.8-0.1,1H482.2z M488.7,158.5c0-1.4-0.6-3.6-3.1-3.6
		c-2.2,0-3.2,2-3.4,3.6H488.7z"/>
	<path fill="#1A1A1A" d="M502.1,165.3c-0.6,0.3-1.8,0.7-3.5,0.7c-3.7,0-6-2.5-6-6.2c0-3.7,2.5-6.4,6.5-6.4c1.3,0,2.4,0.3,3,0.6
		l-0.5,1.7c-0.5-0.3-1.3-0.6-2.5-0.6c-2.8,0-4.3,2-4.3,4.6c0,2.8,1.8,4.5,4.2,4.5c1.2,0,2.1-0.3,2.7-0.6L502.1,165.3z"/>
	<path fill="#1A1A1A" d="M504.7,157.4c0-1.4,0-2.6-0.1-3.8h1.9l0.1,2.4h0.1c0.5-1.6,1.9-2.6,3.3-2.6c0.2,0,0.4,0,0.6,0.1v2.1
		c-0.2,0-0.4-0.1-0.8-0.1c-1.5,0-2.6,1.2-2.9,2.8c0,0.3-0.1,0.6-0.1,1v6.4h-2.2V157.4z"/>
	<path fill="#1A1A1A" d="M513.9,160.1c0.1,3,2,4.2,4.2,4.2c1.6,0,2.5-0.3,3.3-0.6l0.4,1.6c-0.8,0.4-2.1,0.8-4,0.8
		c-3.7,0-5.9-2.4-5.9-6.1c0-3.6,2.1-6.5,5.7-6.5c3.9,0,5,3.5,5,5.7c0,0.4-0.1,0.8-0.1,1H513.9z M520.3,158.5c0-1.4-0.6-3.6-3-3.6
		c-2.2,0-3.2,2-3.4,3.6H520.3z"/>
	<path fill="#1A1A1A" d="M527.8,150.2v3.5h3.2v1.7h-3.2v6.5c0,1.5,0.4,2.3,1.7,2.3c0.6,0,1-0.1,1.3-0.1l0.1,1.6
		c-0.4,0.2-1.1,0.3-1.9,0.3c-1,0-1.8-0.3-2.4-0.9c-0.6-0.6-0.8-1.7-0.8-3.1v-6.6h-1.9v-1.7h1.9v-2.9L527.8,150.2z"/>
	<path fill="#1A1A1A" d="M538.6,165.8c0-0.8,0.1-2,0.1-3.1V148h2.2v7.6h0.1c0.8-1.3,2.2-2.2,4.1-2.2c3,0,5.1,2.5,5.1,6.2
		c0,4.3-2.7,6.5-5.4,6.5c-1.8,0-3.1-0.7-4-2.3h-0.1l-0.1,2H538.6z M540.9,160.9c0,0.3,0.1,0.5,0.1,0.8c0.4,1.5,1.7,2.6,3.3,2.6
		c2.3,0,3.7-1.9,3.7-4.6c0-2.4-1.2-4.5-3.6-4.5c-1.5,0-2.9,1-3.3,2.7c0,0.2-0.1,0.5-0.1,0.9V160.9z"/>
	<path fill="#1A1A1A" d="M559.7,165.8l-0.2-1.5h-0.1c-0.7,0.9-2,1.8-3.7,1.8c-2.5,0-3.7-1.7-3.7-3.5c0-2.9,2.6-4.5,7.3-4.5v-0.2
		c0-1-0.3-2.8-2.8-2.8c-1.1,0-2.3,0.4-3.2,0.9l-0.5-1.4c1-0.6,2.4-1.1,4-1.1c3.7,0,4.6,2.5,4.6,4.9v4.5c0,1,0,2.1,0.2,2.9H559.7z
		 M559.3,159.6c-2.4-0.1-5.1,0.4-5.1,2.7c0,1.4,0.9,2.1,2.1,2.1c1.6,0,2.6-1,2.9-2c0.1-0.2,0.1-0.5,0.1-0.7V159.6z"/>
	<path fill="#1A1A1A" d="M573.6,165.3c-0.6,0.3-1.8,0.7-3.5,0.7c-3.7,0-6-2.5-6-6.2c0-3.7,2.5-6.4,6.5-6.4c1.3,0,2.4,0.3,3,0.6
		l-0.5,1.7c-0.5-0.3-1.3-0.6-2.5-0.6c-2.8,0-4.3,2-4.3,4.6c0,2.8,1.8,4.5,4.2,4.5c1.2,0,2.1-0.3,2.7-0.6L573.6,165.3z"/>
	<path fill="#1A1A1A" d="M578.4,159.2L578.4,159.2c0.3-0.4,0.8-0.9,1.1-1.4l3.5-4.2h2.7l-4.7,5l5.3,7.1h-2.7l-4.2-5.8l-1.1,1.2v4.5
		h-2.2V148h2.2V159.2z"/>
	<path fill="#1A1A1A" d="M587.6,163.5c0.7,0.4,1.8,0.9,2.9,0.9c1.6,0,2.3-0.8,2.3-1.8c0-1-0.6-1.6-2.2-2.2c-2.2-0.8-3.2-2-3.2-3.4
		c0-1.9,1.6-3.5,4.2-3.5c1.2,0,2.3,0.4,3,0.8l-0.6,1.6c-0.5-0.3-1.3-0.7-2.5-0.7c-1.3,0-2,0.7-2,1.6c0,1,0.7,1.4,2.3,2
		c2.1,0.8,3.2,1.8,3.2,3.6c0,2.1-1.6,3.6-4.5,3.6c-1.3,0-2.5-0.3-3.4-0.8L587.6,163.5z"/>
	<path fill="#1A1A1A" d="M600.5,150.2v3.5h3.2v1.7h-3.2v6.5c0,1.5,0.4,2.3,1.7,2.3c0.6,0,1-0.1,1.3-0.1l0.1,1.6
		c-0.4,0.2-1.1,0.3-1.9,0.3c-1,0-1.8-0.3-2.4-0.9c-0.6-0.6-0.8-1.7-0.8-3.1v-6.6h-1.9v-1.7h1.9v-2.9L600.5,150.2z"/>
	<path fill="#1A1A1A" d="M616.9,159.6c0,4.5-3.1,6.4-6,6.4c-3.3,0-5.8-2.4-5.8-6.2c0-4,2.6-6.4,6-6.4
		C614.6,153.4,616.9,155.9,616.9,159.6z M607.3,159.7c0,2.6,1.5,4.6,3.7,4.6c2.1,0,3.7-2,3.7-4.7c0-2-1-4.6-3.6-4.6
		S607.3,157.4,607.3,159.7z"/>
	<path fill="#1A1A1A" d="M619.7,157.4c0-1.4,0-2.6-0.1-3.8h1.9l0.1,2.4h0.1c0.6-1.6,1.9-2.6,3.3-2.6c0.2,0,0.4,0,0.6,0.1v2.1
		c-0.2,0-0.4-0.1-0.8-0.1c-1.5,0-2.6,1.2-2.9,2.8c-0.1,0.3-0.1,0.6-0.1,1v6.4h-2.2V157.4z"/>
	<path fill="#1A1A1A" d="M630.4,150.3c0,0.7-0.5,1.3-1.4,1.3c-0.8,0-1.3-0.6-1.3-1.3c0-0.8,0.6-1.4,1.4-1.4
		C629.9,148.9,630.4,149.5,630.4,150.3z M628,165.8v-12.1h2.2v12.1H628z"/>
	<path fill="#1A1A1A" d="M635,160.1c0.1,3,1.9,4.2,4.1,4.2c1.6,0,2.5-0.3,3.3-0.6l0.4,1.6c-0.8,0.4-2.1,0.8-4,0.8
		c-3.7,0-5.9-2.4-5.9-6.1c0-3.6,2.2-6.5,5.7-6.5c3.9,0,5,3.5,5,5.7c0,0.4,0,0.8-0.1,1H635z M641.5,158.5c0-1.4-0.6-3.6-3.1-3.6
		c-2.2,0-3.2,2-3.4,3.6H641.5z"/>
	<path fill="#1A1A1A" d="M646,163.5c0.7,0.4,1.8,0.9,2.9,0.9c1.6,0,2.3-0.8,2.3-1.8c0-1-0.6-1.6-2.2-2.2c-2.2-0.8-3.2-2-3.2-3.4
		c0-1.9,1.6-3.5,4.2-3.5c1.2,0,2.3,0.4,3,0.8l-0.6,1.6c-0.5-0.3-1.3-0.7-2.5-0.7c-1.3,0-2,0.7-2,1.6c0,1,0.7,1.4,2.3,2
		c2.1,0.8,3.2,1.8,3.2,3.6c0,2.1-1.6,3.6-4.5,3.6c-1.3,0-2.5-0.3-3.4-0.8L646,163.5z"/>
	<path fill="#1A1A1A" d="M655.4,164.5c0-0.9,0.6-1.6,1.5-1.6c0.9,0,1.5,0.6,1.5,1.6c0,0.9-0.6,1.6-1.5,1.6
		C656,166,655.4,165.4,655.4,164.5z"/>
	<path fill="#1A1A1A" d="M262.8,224.5l9.3-13.7v-0.1h-8.5v-1.8H275v1.3l-9.3,13.6v0.1h9.4v1.8h-12.3V224.5z"/>
	<path fill="#1A1A1A" d="M288.3,219.6c0,4.5-3.1,6.4-6,6.4c-3.3,0-5.8-2.4-5.8-6.2c0-4,2.6-6.4,6-6.4
		C286,213.4,288.3,215.9,288.3,219.6z M278.7,219.7c0,2.6,1.5,4.6,3.7,4.6c2.1,0,3.7-2,3.7-4.7c0-2-1-4.6-3.6-4.6
		C279.9,215,278.7,217.4,278.7,219.7z"/>
	<path fill="#1A1A1A" d="M302.1,219.6c0,4.5-3.1,6.4-6,6.4c-3.3,0-5.8-2.4-5.8-6.2c0-4,2.6-6.4,6-6.4
		C299.7,213.4,302.1,215.9,302.1,219.6z M292.5,219.7c0,2.6,1.5,4.6,3.7,4.6c2.1,0,3.7-2,3.7-4.7c0-2-1-4.6-3.6-4.6
		C293.6,215,292.5,217.4,292.5,219.7z"/>
	<path fill="#1A1A1A" d="M304.8,216.9c0-1.2,0-2.3-0.1-3.3h1.9l0.1,1.9h0.1c0.7-1.1,1.8-2.2,3.8-2.2c1.6,0,2.9,1,3.4,2.4h0
		c0.4-0.7,0.9-1.2,1.3-1.6c0.7-0.6,1.5-0.9,2.7-0.9c1.6,0,4,1,4,5.2v7.1H320v-6.8c0-2.3-0.8-3.7-2.6-3.7c-1.2,0-2.2,0.9-2.6,2
		c-0.1,0.3-0.2,0.7-0.2,1.1v7.5h-2.1v-7.2c0-1.9-0.9-3.3-2.5-3.3c-1.4,0-2.4,1.1-2.7,2.2c-0.1,0.3-0.2,0.7-0.2,1.1v7.3h-2.1V216.9z"
		/>
	<path fill="#1A1A1A" d="M333.4,210.3c0,0.7-0.5,1.3-1.4,1.3c-0.8,0-1.3-0.6-1.3-1.3c0-0.8,0.6-1.4,1.4-1.4
		C332.9,208.9,333.4,209.5,333.4,210.3z M331,225.8v-12.1h2.2v12.1H331z"/>
	<path fill="#1A1A1A" d="M336.8,216.9c0-1.2,0-2.3-0.1-3.3h1.9l0.1,2h0.1c0.6-1.1,2-2.3,4-2.3c1.7,0,4.3,1,4.3,5.1v7.2h-2.2v-7
		c0-1.9-0.7-3.6-2.8-3.6c-1.4,0-2.6,1-2.9,2.2c-0.1,0.3-0.1,0.6-0.1,1v7.3h-2.2V216.9z"/>
	<path fill="#1A1A1A" d="M350.2,224.5c0-0.9,0.6-1.6,1.5-1.6c0.9,0,1.5,0.6,1.5,1.6c0,0.9-0.6,1.6-1.5,1.6
		C350.8,226,350.2,225.4,350.2,224.5z"/>
	<path fill="#1A1A1A" d="M361.3,209.1c1.3-0.2,2.9-0.3,4.6-0.3c3.1,0,5.3,0.7,6.8,2.1c1.5,1.4,2.4,3.3,2.4,6c0,2.7-0.8,5-2.4,6.5
		c-1.6,1.6-4.2,2.4-7.4,2.4c-1.5,0-2.8-0.1-3.9-0.2V209.1z M363.4,224c0.5,0.1,1.3,0.1,2.2,0.1c4.6,0,7.2-2.6,7.2-7.1
		c0-4-2.2-6.5-6.8-6.5c-1.1,0-2,0.1-2.5,0.2V224z"/>
	<path fill="#1A1A1A" d="M380.3,210.3c0,0.7-0.5,1.3-1.4,1.3c-0.8,0-1.3-0.6-1.3-1.3c0-0.8,0.6-1.4,1.4-1.4
		C379.8,208.9,380.3,209.5,380.3,210.3z M377.8,225.8v-12.1h2.2v12.1H377.8z"/>
	<path fill="#1A1A1A" d="M384.5,213.7l2.4,6.8c0.4,1.1,0.7,2.1,1,3.1h0.1c0.3-1,0.6-2,1-3.1l2.3-6.8h2.3l-4.8,12.1h-2.1l-4.6-12.1
		H384.5z"/>
	<path fill="#1A1A1A" d="M396.7,220.1c0.1,3,1.9,4.2,4.1,4.2c1.6,0,2.5-0.3,3.3-0.6l0.4,1.6c-0.8,0.4-2.1,0.8-4,0.8
		c-3.7,0-5.9-2.4-5.9-6.1c0-3.6,2.2-6.5,5.7-6.5c3.9,0,5,3.5,5,5.7c0,0.4,0,0.8-0.1,1H396.7z M403.1,218.5c0-1.4-0.6-3.6-3.1-3.6
		c-2.2,0-3.2,2-3.4,3.6H403.1z"/>
	<path fill="#1A1A1A" d="M423.7,208v14.6c0,1.1,0,2.3,0.1,3.1h-2l-0.1-2.1h-0.1c-0.7,1.3-2.1,2.4-4.1,2.4c-2.9,0-5.2-2.5-5.2-6.1
		c0-4,2.5-6.5,5.4-6.5c1.8,0,3.1,0.9,3.6,1.8h0.1V208H423.7z M421.5,218.6c0-0.3,0-0.6-0.1-0.9c-0.3-1.4-1.5-2.5-3.2-2.5
		c-2.3,0-3.6,2-3.6,4.7c0,2.4,1.2,4.5,3.6,4.5c1.5,0,2.8-1,3.2-2.6c0.1-0.3,0.1-0.6,0.1-0.9V218.6z"/>
	<path fill="#1A1A1A" d="M428.6,220.1c0.1,3,1.9,4.2,4.1,4.2c1.6,0,2.5-0.3,3.3-0.6l0.4,1.6c-0.8,0.4-2.1,0.8-4,0.8
		c-3.7,0-5.9-2.4-5.9-6.1c0-3.6,2.2-6.5,5.7-6.5c3.9,0,5,3.5,5,5.7c0,0.4,0,0.8-0.1,1H428.6z M435.1,218.5c0-1.4-0.6-3.6-3.1-3.6
		c-2.2,0-3.2,2-3.4,3.6H435.1z"/>
	<path fill="#1A1A1A" d="M441.1,220.1c0.1,3,2,4.2,4.2,4.2c1.6,0,2.5-0.3,3.3-0.6l0.4,1.6c-0.8,0.4-2.1,0.8-4,0.8
		c-3.7,0-5.9-2.4-5.9-6.1c0-3.6,2.1-6.5,5.7-6.5c3.9,0,5,3.5,5,5.7c0,0.4-0.1,0.8-0.1,1H441.1z M447.6,218.5c0-1.4-0.6-3.6-3-3.6
		c-2.2,0-3.2,2-3.4,3.6H447.6z"/>
	<path fill="#1A1A1A" d="M452.4,217.6c0-1.5-0.1-2.8-0.1-3.9h2l0.1,2.1h0c0.9-1.5,2.3-2.3,4.3-2.3c2.9,0,5.1,2.5,5.1,6.1
		c0,4.3-2.7,6.5-5.5,6.5c-1.6,0-3-0.7-3.7-1.9h-0.1v6.6h-2.2V217.6z M454.6,220.8c0,0.3,0.1,0.6,0.1,0.9c0.4,1.5,1.7,2.6,3.3,2.6
		c2.3,0,3.7-1.9,3.7-4.7c0-2.4-1.3-4.5-3.6-4.5c-1.5,0-2.9,1.1-3.3,2.7c-0.1,0.3-0.2,0.6-0.2,0.9V220.8z"/>
	<path fill="#1A1A1A" d="M465.5,224.5c0-0.9,0.6-1.6,1.5-1.6s1.5,0.6,1.5,1.6c0,0.9-0.6,1.6-1.5,1.6
		C466.1,226,465.5,225.4,465.5,224.5z"/>
</g>
<path fill="#333333" d="M470.2,323.1h-209c-5.4,0-9.8-4.4-9.8-9.8V280c0-5.4,4.4-9.8,9.8-9.8h209c5.4,0,9.8,4.4,9.8,9.8v33.4
	C480,318.7,475.7,323.1,470.2,323.1z"/>
<g>
	<g>
		<path fill="#FFFFFF" d="M339.2,296.9h-6.7v4.3h7.5v3.4h-11.6v-18.2h11.2v3.4h-7.1v3.8h6.7V296.9z"/>
		<path fill="#FFFFFF" d="M342.8,304.6v-18.2h4.8l3.8,6.7c1.1,1.9,2.2,4.2,3,6.2h0.1c-0.3-2.4-0.4-4.9-0.4-7.6v-5.3h3.8v18.2h-4.3
			l-3.9-7c-1.1-1.9-2.3-4.3-3.2-6.4l-0.1,0c0.1,2.4,0.2,5,0.2,7.9v5.5H342.8z"/>
		<path fill="#FFFFFF" d="M364.9,289.8H360v-3.5h14v3.5h-5v14.7h-4.1V289.8z"/>
		<path fill="#FFFFFF" d="M387,296.9h-6.7v4.3h7.5v3.4h-11.6v-18.2h11.2v3.4h-7.1v3.8h6.7V296.9z"/>
		<path fill="#FFFFFF" d="M390.6,286.6c1.3-0.2,3.3-0.4,5.5-0.4c2.7,0,4.6,0.4,5.9,1.4c1.1,0.9,1.7,2.1,1.7,3.8
			c0,2.3-1.6,3.9-3.2,4.5v0.1c1.3,0.5,2,1.7,2.4,3.4c0.6,2.1,1.1,4.4,1.5,5.1h-4.2c-0.3-0.5-0.7-2-1.3-4.2c-0.5-2.3-1.3-2.9-2.9-2.9
			h-1.2v7.2h-4.1V286.6z M394.7,294.5h1.6c2.1,0,3.3-1,3.3-2.6c0-1.7-1.1-2.5-3-2.5c-1,0-1.6,0.1-1.9,0.1V294.5z"/>
	</g>
</g>
</svg>
